[[0.012649,{"lines":{"0":[["bash: /etc/resolv.conf: Permission denied                                        ",{}]],"1":[["                                                                                 ",{}]],"2":[["                                                                                 ",{}]],"3":[["                                                                                 ",{}]],"4":[["                                                                                 ",{}]],"5":[["                                                                                 ",{}]],"6":[["                                                                                 ",{}]],"7":[["                                                                                 ",{}]],"8":[["                                                                                 ",{}]],"9":[["                                                                                 ",{}]],"10":[["                                                                                 ",{}]],"11":[["                                                                                 ",{}]],"12":[["                                                                                 ",{}]],"13":[["                                                                                 ",{}]],"14":[["                                                                                 ",{}]],"15":[["                                                                                 ",{}]],"16":[["                                                                                 ",{}]],"17":[["                                                                                 ",{}]],"18":[["                                                                                 ",{}]],"19":[["                                                                                 ",{}]],"20":[["                                                                                 ",{}]],"21":[["                                                                                 ",{}]],"22":[["                                                                                 ",{}]],"23":[["                                                                                 ",{}]]},"cursor":{"x":0,"y":1,"visible":true}}],[0.23331,{"lines":{"1":[["wanhu@ubuntu",{"fg":2,"bold":true}],[":",{}],["~",{"fg":4,"bold":true}],["$                                                                  ",{}]]},"cursor":{"x":16}}],[7.65367,{"lines":{"1":[["wanhu@ubuntu",{"fg":2,"bold":true}],[":",{}],["~",{"fg":4,"bold":true}],["$ l                                                                ",{}]]},"cursor":{"x":17}}],[0.105033,{"lines":{"1":[["wanhu@ubuntu",{"fg":2,"bold":true}],[":",{}],["~",{"fg":4,"bold":true}],["$ ls                                                               ",{}]]},"cursor":{"x":18}}],[0.190817,{"cursor":{"x":0,"y":2}}],[0.002078,{"lines":{"2":[["Archive",{"fg":4,"bold":true}],["        ",{}],["ffmpeg-2.1.3",{"fg":4,"bold":true}],["         ",{}],["msdk_encode-master",{"fg":4,"bold":true}],["                           ",{}]],"3":[["CodecProject",{"fg":4,"bold":true}],["   ",{}],["hb_HandBrake",{"fg":4,"bold":true}],["         ",{}],["play",{"fg":4,"bold":true}],["                                         ",{}]],"4":[["Videos",{"fg":4,"bold":true}],["         ",{}],["l_MSDK",{"fg":4,"bold":true}],["               ",{}],["qsv",{"fg":4,"bold":true}],["                                          ",{}]],"5":[["cli_HandBrake",{"fg":4,"bold":true}],["  ",{}],["libav-v10_alpha2",{"fg":4,"bold":true}],["     ",{}],["samples_msdk",{"fg":6,"bold":true}],["                                 ",{}]],"6":[["config.log     ",{}],["libav-v10_alpha2x",{"fg":4,"bold":true}],["    ",{}],["smp_msdk",{"fg":4,"bold":true}],["                                     ",{}]],"7":[["fdk-aac",{"fg":4,"bold":true}],["        ",{}],["mediasdk",{"fg":4,"bold":true}],["             ",{}],["tcmd.sh",{"fg":2,"bold":true}],["                                      ",{}]],"8":[["ffmpeg",{"fg":4,"bold":true}],["         ",{}],["mfx2014",{"fg":4,"bold":true}],["              ",{}],["x264",{"fg":4,"bold":true}],["                                         ",{}]],"9":[["ffmpeg-2.0.1",{"fg":4,"bold":true}],["   ",{}],["mfx_dispatch-master",{"fg":4,"bold":true}],["  ",{}],["x264-snapshot-20130915-2245",{"fg":4,"bold":true}],["                  ",{}]],"10":[["wanhu@ubuntu",{"fg":2,"bold":true}],[":",{}],["~",{"fg":4,"bold":true}],["$                                                                  ",{}]]},"cursor":{"x":16,"y":10}}],[0.854386,{"lines":{"10":[["wanhu@ubuntu",{"fg":2,"bold":true}],[":",{}],["~",{"fg":4,"bold":true}],["$ c                                                                ",{}]]},"cursor":{"x":17}}],[0.167493,{"lines":{"10":[["wanhu@ubuntu",{"fg":2,"bold":true}],[":",{}],["~",{"fg":4,"bold":true}],["$ cd                                                               ",{}]]},"cursor":{"x":18}}],[0.161455,{"cursor":{"x":19}}],[1.815871,{"lines":{"10":[["wanhu@ubuntu",{"fg":2,"bold":true}],[":",{}],["~",{"fg":4,"bold":true}],["$ cd p                                                             ",{}]]},"cursor":{"x":20}}],[0.231086,{"lines":{"10":[["wanhu@ubuntu",{"fg":2,"bold":true}],[":",{}],["~",{"fg":4,"bold":true}],["$ cd pl                                                            ",{}]]},"cursor":{"x":21}}],[0.120538,{"lines":{"10":[["wanhu@ubuntu",{"fg":2,"bold":true}],[":",{}],["~",{"fg":4,"bold":true}],["$ cd pla                                                           ",{}]]},"cursor":{"x":22}}],[0.339825,{"lines":{"10":[["wanhu@ubuntu",{"fg":2,"bold":true}],[":",{}],["~",{"fg":4,"bold":true}],["$ cd play/                                                         ",{}]]},"cursor":{"x":24}}],[0.995577,{"lines":{"10":[["wanhu@ubuntu",{"fg":2,"bold":true}],[":",{}],["~",{"fg":4,"bold":true}],["$ cd play/f                                                        ",{}]]},"cursor":{"x":25}}],[0.151793,{"lines":{"10":[["wanhu@ubuntu",{"fg":2,"bold":true}],[":",{}],["~",{"fg":4,"bold":true}],["$ cd play/ff                                                       ",{}]]},"cursor":{"x":26}}],[0.212305,{"lines":{"10":[["wanhu@ubuntu",{"fg":2,"bold":true}],[":",{}],["~",{"fg":4,"bold":true}],["$ cd play/ffmpeg-qsv/                                              ",{}]]},"cursor":{"x":35}}],[0.883984,{"cursor":{"x":0,"y":11}}],[0.000158,{"lines":{"11":[["wanhu@ubuntu",{"fg":2,"bold":true}],[":",{}],["~/play/ffmpeg-qsv",{"fg":4,"bold":true}],["$                                                  ",{}]]},"cursor":{"x":32}}],[2.175843,{"lines":{"11":[["wanhu@ubuntu",{"fg":2,"bold":true}],[":",{}],["~/play/ffmpeg-qsv",{"fg":4,"bold":true}],["$ .                                                ",{}]]},"cursor":{"x":33}}],[0.999939,{"lines":{"11":[["wanhu@ubuntu",{"fg":2,"bold":true}],[":",{}],["~/play/ffmpeg-qsv",{"fg":4,"bold":true}],["$ ./                                               ",{}]]},"cursor":{"x":34}}],[0.832145,{"lines":{"11":[["wanhu@ubuntu",{"fg":2,"bold":true}],[":",{}],["~/play/ffmpeg-qsv",{"fg":4,"bold":true}],["$ ./f                                              ",{}]]},"cursor":{"x":35}}],[0.183978,{"lines":{"11":[["wanhu@ubuntu",{"fg":2,"bold":true}],[":",{}],["~/play/ffmpeg-qsv",{"fg":4,"bold":true}],["$ ./ff                                             ",{}]]},"cursor":{"x":36}}],[0.327895,{"lines":{"11":[["wanhu@ubuntu",{"fg":2,"bold":true}],[":",{}],["~/play/ffmpeg-qsv",{"fg":4,"bold":true}],["$ ./ffm                                            ",{}]]},"cursor":{"x":37}}],[0.152178,{"lines":{"11":[["wanhu@ubuntu",{"fg":2,"bold":true}],[":",{}],["~/play/ffmpeg-qsv",{"fg":4,"bold":true}],["$ ./ffmpeg                                         ",{}]]},"cursor":{"x":40}}],[1.520007,{"cursor":{"x":41}}],[0.311987,{"lines":{"11":[["wanhu@ubuntu",{"fg":2,"bold":true}],[":",{}],["~/play/ffmpeg-qsv",{"fg":4,"bold":true}],["$ ./ffmpeg -                                       ",{}]]},"cursor":{"x":42}}],[0.992035,{"lines":{"11":[["wanhu@ubuntu",{"fg":2,"bold":true}],[":",{}],["~/play/ffmpeg-qsv",{"fg":4,"bold":true}],["$ ./ffmpeg -i                                      ",{}]]},"cursor":{"x":43}}],[1.008099,{"lines":{"11":[["wanhu@ubuntu",{"fg":2,"bold":true}],[":",{}],["~/play/ffmpeg-qsv",{"fg":4,"bold":true}],["$ ./ffmpeg -                                       ",{}]]},"cursor":{"x":42}}],[0.500451,{"lines":{"11":[["wanhu@ubuntu",{"fg":2,"bold":true}],[":",{}],["~/play/ffmpeg-qsv",{"fg":4,"bold":true}],["$ ./ffmpeg                                         ",{}]]},"cursor":{"x":41}}],[0.008449,{"cursor":{"x":40}}],[0.032947,{"lines":{"11":[["wanhu@ubuntu",{"fg":2,"bold":true}],[":",{}],["~/play/ffmpeg-qsv",{"fg":4,"bold":true}],["$ ./ffmpe                                          ",{}]]},"cursor":{"x":39}}],[0.030853,{"lines":{"11":[["wanhu@ubuntu",{"fg":2,"bold":true}],[":",{}],["~/play/ffmpeg-qsv",{"fg":4,"bold":true}],["$ ./ffmp                                           ",{}]]},"cursor":{"x":38}}],[0.031722,{"lines":{"11":[["wanhu@ubuntu",{"fg":2,"bold":true}],[":",{}],["~/play/ffmpeg-qsv",{"fg":4,"bold":true}],["$ ./ffm                                            ",{}]]},"cursor":{"x":37}}],[0.030823,{"lines":{"11":[["wanhu@ubuntu",{"fg":2,"bold":true}],[":",{}],["~/play/ffmpeg-qsv",{"fg":4,"bold":true}],["$ ./ff                                             ",{}]]},"cursor":{"x":36}}],[0.030914,{"lines":{"11":[["wanhu@ubuntu",{"fg":2,"bold":true}],[":",{}],["~/play/ffmpeg-qsv",{"fg":4,"bold":true}],["$ ./f                                              ",{}]]},"cursor":{"x":35}}],[0.030976,{"lines":{"11":[["wanhu@ubuntu",{"fg":2,"bold":true}],[":",{}],["~/play/ffmpeg-qsv",{"fg":4,"bold":true}],["$ ./                                               ",{}]]},"cursor":{"x":34}}],[0.031623,{"lines":{"11":[["wanhu@ubuntu",{"fg":2,"bold":true}],[":",{}],["~/play/ffmpeg-qsv",{"fg":4,"bold":true}],["$ .                                                ",{}]]},"cursor":{"x":33}}],[0.030794,{"lines":{"11":[["wanhu@ubuntu",{"fg":2,"bold":true}],[":",{}],["~/play/ffmpeg-qsv",{"fg":4,"bold":true}],["$                                                  ",{}]]},"cursor":{"x":32}}],[0.046156,{}],[13.611389,{"lines":{"11":[["wanhu@ubuntu",{"fg":2,"bold":true}],[":",{}],["~/play/ffmpeg-qsv",{"fg":4,"bold":true}],["$ ./ffm                                            ",{}]]},"cursor":{"x":37}}],[0.001049,{"lines":{"11":[["wanhu@ubuntu",{"fg":2,"bold":true}],[":",{}],["~/play/ffmpeg-qsv",{"fg":4,"bold":true}],["$ ./ffmpeg -f rawvideo -pix_fmt yuv420p -s:v 1920x1",{}]],"12":[["080 -r 30 -i ~/Videos/input.yuv -c:v libx264 output.mp4                          ",{}]]},"cursor":{"x":55,"y":12}}],[2.278613,{"cursor":{"x":0,"y":13}}],[0.08781799999999999,{"lines":{"13":[["ffmpeg version N-57217-gf07c7d2 Copyright (c) 2000-2013 the FFmpeg developers    ",{}]]},"cursor":{"x":77}}],[0.010848,{"lines":{"0":[["Input #0, rawvideo, from '/home/wanhu/Videos/input.yuv':",{}],["                         ",{"fg":3}]],"1":[["  Duration: 00:00:04.40, start: 0.000000, bitrate: 746496 kb/s                   ",{}]],"2":[["    Stream #0:0: Video: rawvideo (I420 / 0x30323449), yuv420p, 1920x1080, 746496 ",{}]],"3":[["kb/s, 30 tbr, 30 tbn, 30 tbc                                                     ",{}]],"4":[["[libx264 @ 0x2d64780] ",{"fg":6,"bold":true}],["using cpu capabilities: MMX2 SSE2Fast SSSE3 SSE4.2 AVX     ",{}]],"5":[["[libx264 @ 0x2d64780] ",{"fg":6,"bold":true}],["profile High, level 4.0                                    ",{}]],"6":[["[libx264 @ 0x2d64780] ",{"fg":6,"bold":true}],["264 - core 135 - H.264/MPEG-4 AVC codec - Copyleft 2003-201",{}]],"7":[["3 - http://www.videolan.org/x264.html - options: cabac=1 ref=3 deblock=1:0:0 anal",{}]],"8":[["yse=0x3:0x113 me=hex subme=7 psy=1 psy_rd=1.00:0.00 mixed_ref=1 me_range=16 chrom",{}]],"9":[["a_me=1 trellis=1 8x8dct=1 cqm=0 deadzone=21,11 fast_pskip=1 chroma_qp_offset=-2 t",{}]],"10":[["hreads=6 lookahead_threads=1 sliced_threads=0 nr=0 decimate=1 interlaced=0 bluray",{}]],"11":[["_compat=0 constrained_intra=0 bframes=3 b_pyramid=2 b_adapt=1 b_bias=0 direct=1 w",{}]],"12":[["eightb=1 open_gop=0 weightp=2 keyint=250 keyint_min=25 scenecut=40 intra_refresh=",{}]],"13":[["0 rc_lookahead=40 rc=crf mbtree=1 crf=23.0 qcomp=0.60 qpmin=0 qpmax=69 qpstep=4 i",{}]],"14":[["p_ratio=1.40 aq=1:1.00                                                           ",{}]],"15":[["Output #0, mp4, to 'output.mp4':                                                 ",{}]],"16":[["  Metadata:                                                                      ",{}]],"17":[["    encoder         : Lavf55.19.102                                              ",{}]],"18":[["    Stream #0:0: Video: h264 (libx264) ([33][0][0][0] / 0x0021), yuv420p, 1920x10",{}]],"19":[["80, q=-1--1, 15360 tbn, 30 tbc                                                   ",{}]],"20":[["Stream mapping:                                                                  ",{}]],"21":[["  Stream #0:0 -> #0:0 (rawvideo -> libx264)                                      ",{}]],"22":[["Press [q] to stop, [?] for help                                                  ",{}]]},"cursor":{"x":0,"y":23}}],[0.584752,{"lines":{"23":[["frame=   31 fps=0.0 q=0.0 size=       0kB time=00:00:00.00 bitrate=N/A           ",{}]]}}],[0.530089,{"lines":{"23":[["frame=   41 fps= 39 q=0.0 size=       0kB time=00:00:00.00 bitrate=N/A           ",{}]]}}],[0.548473,{}],[0.004963,{"lines":{"23":[["frame=   49 fps= 30 q=0.0 size=       0kB time=00:00:00.00 bitrate=N/A           ",{}]]}}],[0.550273,{}],[0.003394,{"lines":{"0":[["  Duration: 00:00:04.40, start: 0.000000, bitrate: 746496 kb/s                   ",{}]],"1":[["    Stream #0:0: Video: rawvideo (I420 / 0x30323449), yuv420p, 1920x1080, 746496 ",{}]],"2":[["kb/s, 30 tbr, 30 tbn, 30 tbc                                                     ",{}]],"3":[["[libx264 @ 0x2d64780] ",{"fg":6,"bold":true}],["using cpu capabilities: MMX2 SSE2Fast SSSE3 SSE4.2 AVX     ",{}]],"4":[["[libx264 @ 0x2d64780] ",{"fg":6,"bold":true}],["profile High, level 4.0                                    ",{}]],"5":[["[libx264 @ 0x2d64780] ",{"fg":6,"bold":true}],["264 - core 135 - H.264/MPEG-4 AVC codec - Copyleft 2003-201",{}]],"6":[["3 - http://www.videolan.org/x264.html - options: cabac=1 ref=3 deblock=1:0:0 anal",{}]],"7":[["yse=0x3:0x113 me=hex subme=7 psy=1 psy_rd=1.00:0.00 mixed_ref=1 me_range=16 chrom",{}]],"8":[["a_me=1 trellis=1 8x8dct=1 cqm=0 deadzone=21,11 fast_pskip=1 chroma_qp_offset=-2 t",{}]],"9":[["hreads=6 lookahead_threads=1 sliced_threads=0 nr=0 decimate=1 interlaced=0 bluray",{}]],"10":[["_compat=0 constrained_intra=0 bframes=3 b_pyramid=2 b_adapt=1 b_bias=0 direct=1 w",{}]],"11":[["eightb=1 open_gop=0 weightp=2 keyint=250 keyint_min=25 scenecut=40 intra_refresh=",{}]],"12":[["0 rc_lookahead=40 rc=crf mbtree=1 crf=23.0 qcomp=0.60 qpmin=0 qpmax=69 qpstep=4 i",{}]],"13":[["p_ratio=1.40 aq=1:1.00                                                           ",{}]],"14":[["Output #0, mp4, to 'output.mp4':                                                 ",{}]],"15":[["  Metadata:                                                                      ",{}]],"16":[["    encoder         : Lavf55.19.102                                              ",{}]],"17":[["    Stream #0:0: Video: h264 (libx264) ([33][0][0][0] / 0x0021), yuv420p, 1920x10",{}]],"18":[["80, q=-1--1, 15360 tbn, 30 tbc                                                   ",{}]],"19":[["Stream mapping:                                                                  ",{}]],"20":[["  Stream #0:0 -> #0:0 (rawvideo -> libx264)                                      ",{}]],"21":[["Press [q] to stop, [?] for help                                                  ",{}]],"22":[["frame=   59 fps= 27 q=29.0 size=     758kB time=00:00:00.23 bitrate=26623.1kbits/",{}]],"23":[["s                                                                                ",{}]]}}],[0.525308,{"lines":{"0":[["    Stream #0:0: Video: rawvideo (I420 / 0x30323449), yuv420p, 1920x1080, 746496 ",{}]],"1":[["kb/s, 30 tbr, 30 tbn, 30 tbc                                                     ",{}]],"2":[["[libx264 @ 0x2d64780] ",{"fg":6,"bold":true}],["using cpu capabilities: MMX2 SSE2Fast SSSE3 SSE4.2 AVX     ",{}]],"3":[["[libx264 @ 0x2d64780] ",{"fg":6,"bold":true}],["profile High, level 4.0                                    ",{}]],"4":[["[libx264 @ 0x2d64780] ",{"fg":6,"bold":true}],["264 - core 135 - H.264/MPEG-4 AVC codec - Copyleft 2003-201",{}]],"5":[["3 - http://www.videolan.org/x264.html - options: cabac=1 ref=3 deblock=1:0:0 anal",{}]],"6":[["yse=0x3:0x113 me=hex subme=7 psy=1 psy_rd=1.00:0.00 mixed_ref=1 me_range=16 chrom",{}]],"7":[["a_me=1 trellis=1 8x8dct=1 cqm=0 deadzone=21,11 fast_pskip=1 chroma_qp_offset=-2 t",{}]],"8":[["hreads=6 lookahead_threads=1 sliced_threads=0 nr=0 decimate=1 interlaced=0 bluray",{}]],"9":[["_compat=0 constrained_intra=0 bframes=3 b_pyramid=2 b_adapt=1 b_bias=0 direct=1 w",{}]],"10":[["eightb=1 open_gop=0 weightp=2 keyint=250 keyint_min=25 scenecut=40 intra_refresh=",{}]],"11":[["0 rc_lookahead=40 rc=crf mbtree=1 crf=23.0 qcomp=0.60 qpmin=0 qpmax=69 qpstep=4 i",{}]],"12":[["p_ratio=1.40 aq=1:1.00                                                           ",{}]],"13":[["Output #0, mp4, to 'output.mp4':                                                 ",{}]],"14":[["  Metadata:                                                                      ",{}]],"15":[["    encoder         : Lavf55.19.102                                              ",{}]],"16":[["    Stream #0:0: Video: h264 (libx264) ([33][0][0][0] / 0x0021), yuv420p, 1920x10",{}]],"17":[["80, q=-1--1, 15360 tbn, 30 tbc                                                   ",{}]],"18":[["Stream mapping:                                                                  ",{}]],"19":[["  Stream #0:0 -> #0:0 (rawvideo -> libx264)                                      ",{}]],"20":[["Press [q] to stop, [?] for help                                                  ",{}]],"21":[["frame=   59 fps= 27 q=29.0 size=     758kB time=00:00:00.23 bitrate=26623.1kbits/",{}]],"22":[["frame=   67 fps= 25 q=29.0 size=    1360kB time=00:00:00.50 bitrate=22279.6kbits/",{}]]}}],[0.484776,{"lines":{"0":[["kb/s, 30 tbr, 30 tbn, 30 tbc                                                     ",{}]],"1":[["[libx264 @ 0x2d64780] ",{"fg":6,"bold":true}],["using cpu capabilities: MMX2 SSE2Fast SSSE3 SSE4.2 AVX     ",{}]],"2":[["[libx264 @ 0x2d64780] ",{"fg":6,"bold":true}],["profile High, level 4.0                                    ",{}]],"3":[["[libx264 @ 0x2d64780] ",{"fg":6,"bold":true}],["264 - core 135 - H.264/MPEG-4 AVC codec - Copyleft 2003-201",{}]],"4":[["3 - http://www.videolan.org/x264.html - options: cabac=1 ref=3 deblock=1:0:0 anal",{}]],"5":[["yse=0x3:0x113 me=hex subme=7 psy=1 psy_rd=1.00:0.00 mixed_ref=1 me_range=16 chrom",{}]],"6":[["a_me=1 trellis=1 8x8dct=1 cqm=0 deadzone=21,11 fast_pskip=1 chroma_qp_offset=-2 t",{}]],"7":[["hreads=6 lookahead_threads=1 sliced_threads=0 nr=0 decimate=1 interlaced=0 bluray",{}]],"8":[["_compat=0 constrained_intra=0 bframes=3 b_pyramid=2 b_adapt=1 b_bias=0 direct=1 w",{}]],"9":[["eightb=1 open_gop=0 weightp=2 keyint=250 keyint_min=25 scenecut=40 intra_refresh=",{}]],"10":[["0 rc_lookahead=40 rc=crf mbtree=1 crf=23.0 qcomp=0.60 qpmin=0 qpmax=69 qpstep=4 i",{}]],"11":[["p_ratio=1.40 aq=1:1.00                                                           ",{}]],"12":[["Output #0, mp4, to 'output.mp4':                                                 ",{}]],"13":[["  Metadata:                                                                      ",{}]],"14":[["    encoder         : Lavf55.19.102                                              ",{}]],"15":[["    Stream #0:0: Video: h264 (libx264) ([33][0][0][0] / 0x0021), yuv420p, 1920x10",{}]],"16":[["80, q=-1--1, 15360 tbn, 30 tbc                                                   ",{}]],"17":[["Stream mapping:                                                                  ",{}]],"18":[["  Stream #0:0 -> #0:0 (rawvideo -> libx264)                                      ",{}]],"19":[["Press [q] to stop, [?] for help                                                  ",{}]],"20":[["frame=   59 fps= 27 q=29.0 size=     758kB time=00:00:00.23 bitrate=26623.1kbits/",{}]],"21":[["frame=   67 fps= 25 q=29.0 size=    1360kB time=00:00:00.50 bitrate=22279.6kbits/",{}]],"22":[["frame=   74 fps= 23 q=29.0 size=    1956kB time=00:00:00.73 bitrate=21851.0kbits/",{}]]}}],[0.624779,{"lines":{"0":[["[libx264 @ 0x2d64780] ",{"fg":6,"bold":true}],["using cpu capabilities: MMX2 SSE2Fast SSSE3 SSE4.2 AVX     ",{}]],"1":[["[libx264 @ 0x2d64780] ",{"fg":6,"bold":true}],["profile High, level 4.0                                    ",{}]],"2":[["[libx264 @ 0x2d64780] ",{"fg":6,"bold":true}],["264 - core 135 - H.264/MPEG-4 AVC codec - Copyleft 2003-201",{}]],"3":[["3 - http://www.videolan.org/x264.html - options: cabac=1 ref=3 deblock=1:0:0 anal",{}]],"4":[["yse=0x3:0x113 me=hex subme=7 psy=1 psy_rd=1.00:0.00 mixed_ref=1 me_range=16 chrom",{}]],"5":[["a_me=1 trellis=1 8x8dct=1 cqm=0 deadzone=21,11 fast_pskip=1 chroma_qp_offset=-2 t",{}]],"6":[["hreads=6 lookahead_threads=1 sliced_threads=0 nr=0 decimate=1 interlaced=0 bluray",{}]],"7":[["_compat=0 constrained_intra=0 bframes=3 b_pyramid=2 b_adapt=1 b_bias=0 direct=1 w",{}]],"8":[["eightb=1 open_gop=0 weightp=2 keyint=250 keyint_min=25 scenecut=40 intra_refresh=",{}]],"9":[["0 rc_lookahead=40 rc=crf mbtree=1 crf=23.0 qcomp=0.60 qpmin=0 qpmax=69 qpstep=4 i",{}]],"10":[["p_ratio=1.40 aq=1:1.00                                                           ",{}]],"11":[["Output #0, mp4, to 'output.mp4':                                                 ",{}]],"12":[["  Metadata:                                                                      ",{}]],"13":[["    encoder         : Lavf55.19.102                                              ",{}]],"14":[["    Stream #0:0: Video: h264 (libx264) ([33][0][0][0] / 0x0021), yuv420p, 1920x10",{}]],"15":[["80, q=-1--1, 15360 tbn, 30 tbc                                                   ",{}]],"16":[["Stream mapping:                                                                  ",{}]],"17":[["  Stream #0:0 -> #0:0 (rawvideo -> libx264)                                      ",{}]],"18":[["Press [q] to stop, [?] for help                                                  ",{}]],"19":[["frame=   59 fps= 27 q=29.0 size=     758kB time=00:00:00.23 bitrate=26623.1kbits/",{}]],"20":[["frame=   67 fps= 25 q=29.0 size=    1360kB time=00:00:00.50 bitrate=22279.6kbits/",{}]],"21":[["frame=   74 fps= 23 q=29.0 size=    1956kB time=00:00:00.73 bitrate=21851.0kbits/",{}]],"22":[["frame=   83 fps= 22 q=29.0 size=    2615kB time=00:00:01.03 bitrate=20729.7kbits/",{}]]}}],[0.571628,{"lines":{"0":[["[libx264 @ 0x2d64780] ",{"fg":6,"bold":true}],["profile High, level 4.0                                    ",{}]],"1":[["[libx264 @ 0x2d64780] ",{"fg":6,"bold":true}],["264 - core 135 - H.264/MPEG-4 AVC codec - Copyleft 2003-201",{}]],"2":[["3 - http://www.videolan.org/x264.html - options: cabac=1 ref=3 deblock=1:0:0 anal",{}]],"3":[["yse=0x3:0x113 me=hex subme=7 psy=1 psy_rd=1.00:0.00 mixed_ref=1 me_range=16 chrom",{}]],"4":[["a_me=1 trellis=1 8x8dct=1 cqm=0 deadzone=21,11 fast_pskip=1 chroma_qp_offset=-2 t",{}]],"5":[["hreads=6 lookahead_threads=1 sliced_threads=0 nr=0 decimate=1 interlaced=0 bluray",{}]],"6":[["_compat=0 constrained_intra=0 bframes=3 b_pyramid=2 b_adapt=1 b_bias=0 direct=1 w",{}]],"7":[["eightb=1 open_gop=0 weightp=2 keyint=250 keyint_min=25 scenecut=40 intra_refresh=",{}]],"8":[["0 rc_lookahead=40 rc=crf mbtree=1 crf=23.0 qcomp=0.60 qpmin=0 qpmax=69 qpstep=4 i",{}]],"9":[["p_ratio=1.40 aq=1:1.00                                                           ",{}]],"10":[["Output #0, mp4, to 'output.mp4':                                                 ",{}]],"11":[["  Metadata:                                                                      ",{}]],"12":[["    encoder         : Lavf55.19.102                                              ",{}]],"13":[["    Stream #0:0: Video: h264 (libx264) ([33][0][0][0] / 0x0021), yuv420p, 1920x10",{}]],"14":[["80, q=-1--1, 15360 tbn, 30 tbc                                                   ",{}]],"15":[["Stream mapping:                                                                  ",{}]],"16":[["  Stream #0:0 -> #0:0 (rawvideo -> libx264)                                      ",{}]],"17":[["Press [q] to stop, [?] for help                                                  ",{}]],"18":[["frame=   59 fps= 27 q=29.0 size=     758kB time=00:00:00.23 bitrate=26623.1kbits/",{}]],"19":[["frame=   67 fps= 25 q=29.0 size=    1360kB time=00:00:00.50 bitrate=22279.6kbits/",{}]],"20":[["frame=   74 fps= 23 q=29.0 size=    1956kB time=00:00:00.73 bitrate=21851.0kbits/",{}]],"21":[["frame=   83 fps= 22 q=29.0 size=    2615kB time=00:00:01.03 bitrate=20729.7kbits/",{}]],"22":[["frame=   92 fps= 21 q=29.0 size=    3314kB time=00:00:01.33 bitrate=20362.9kbits/",{}]]}}],[0.585322,{"lines":{"0":[["[libx264 @ 0x2d64780] ",{"fg":6,"bold":true}],["264 - core 135 - H.264/MPEG-4 AVC codec - Copyleft 2003-201",{}]],"1":[["3 - http://www.videolan.org/x264.html - options: cabac=1 ref=3 deblock=1:0:0 anal",{}]],"2":[["yse=0x3:0x113 me=hex subme=7 psy=1 psy_rd=1.00:0.00 mixed_ref=1 me_range=16 chrom",{}]],"3":[["a_me=1 trellis=1 8x8dct=1 cqm=0 deadzone=21,11 fast_pskip=1 chroma_qp_offset=-2 t",{}]],"4":[["hreads=6 lookahead_threads=1 sliced_threads=0 nr=0 decimate=1 interlaced=0 bluray",{}]],"5":[["_compat=0 constrained_intra=0 bframes=3 b_pyramid=2 b_adapt=1 b_bias=0 direct=1 w",{}]],"6":[["eightb=1 open_gop=0 weightp=2 keyint=250 keyint_min=25 scenecut=40 intra_refresh=",{}]],"7":[["0 rc_lookahead=40 rc=crf mbtree=1 crf=23.0 qcomp=0.60 qpmin=0 qpmax=69 qpstep=4 i",{}]],"8":[["p_ratio=1.40 aq=1:1.00                                                           ",{}]],"9":[["Output #0, mp4, to 'output.mp4':                                                 ",{}]],"10":[["  Metadata:                                                                      ",{}]],"11":[["    encoder         : Lavf55.19.102                                              ",{}]],"12":[["    Stream #0:0: Video: h264 (libx264) ([33][0][0][0] / 0x0021), yuv420p, 1920x10",{}]],"13":[["80, q=-1--1, 15360 tbn, 30 tbc                                                   ",{}]],"14":[["Stream mapping:                                                                  ",{}]],"15":[["  Stream #0:0 -> #0:0 (rawvideo -> libx264)                                      ",{}]],"16":[["Press [q] to stop, [?] for help                                                  ",{}]],"17":[["frame=   59 fps= 27 q=29.0 size=     758kB time=00:00:00.23 bitrate=26623.1kbits/",{}]],"18":[["frame=   67 fps= 25 q=29.0 size=    1360kB time=00:00:00.50 bitrate=22279.6kbits/",{}]],"19":[["frame=   74 fps= 23 q=29.0 size=    1956kB time=00:00:00.73 bitrate=21851.0kbits/",{}]],"20":[["frame=   83 fps= 22 q=29.0 size=    2615kB time=00:00:01.03 bitrate=20729.7kbits/",{}]],"21":[["frame=   92 fps= 21 q=29.0 size=    3314kB time=00:00:01.33 bitrate=20362.9kbits/",{}]],"22":[["frame=  100 fps= 20 q=29.0 size=    3928kB time=00:00:01.60 bitrate=20113.1kbits/",{}]]}}],[0.607432,{"lines":{"0":[["3 - http://www.videolan.org/x264.html - options: cabac=1 ref=3 deblock=1:0:0 anal",{}]],"1":[["yse=0x3:0x113 me=hex subme=7 psy=1 psy_rd=1.00:0.00 mixed_ref=1 me_range=16 chrom",{}]],"2":[["a_me=1 trellis=1 8x8dct=1 cqm=0 deadzone=21,11 fast_pskip=1 chroma_qp_offset=-2 t",{}]],"3":[["hreads=6 lookahead_threads=1 sliced_threads=0 nr=0 decimate=1 interlaced=0 bluray",{}]],"4":[["_compat=0 constrained_intra=0 bframes=3 b_pyramid=2 b_adapt=1 b_bias=0 direct=1 w",{}]],"5":[["eightb=1 open_gop=0 weightp=2 keyint=250 keyint_min=25 scenecut=40 intra_refresh=",{}]],"6":[["0 rc_lookahead=40 rc=crf mbtree=1 crf=23.0 qcomp=0.60 qpmin=0 qpmax=69 qpstep=4 i",{}]],"7":[["p_ratio=1.40 aq=1:1.00                                                           ",{}]],"8":[["Output #0, mp4, to 'output.mp4':                                                 ",{}]],"9":[["  Metadata:                                                                      ",{}]],"10":[["    encoder         : Lavf55.19.102                                              ",{}]],"11":[["    Stream #0:0: Video: h264 (libx264) ([33][0][0][0] / 0x0021), yuv420p, 1920x10",{}]],"12":[["80, q=-1--1, 15360 tbn, 30 tbc                                                   ",{}]],"13":[["Stream mapping:                                                                  ",{}]],"14":[["  Stream #0:0 -> #0:0 (rawvideo -> libx264)                                      ",{}]],"15":[["Press [q] to stop, [?] for help                                                  ",{}]],"16":[["frame=   59 fps= 27 q=29.0 size=     758kB time=00:00:00.23 bitrate=26623.1kbits/",{}]],"17":[["frame=   67 fps= 25 q=29.0 size=    1360kB time=00:00:00.50 bitrate=22279.6kbits/",{}]],"18":[["frame=   74 fps= 23 q=29.0 size=    1956kB time=00:00:00.73 bitrate=21851.0kbits/",{}]],"19":[["frame=   83 fps= 22 q=29.0 size=    2615kB time=00:00:01.03 bitrate=20729.7kbits/",{}]],"20":[["frame=   92 fps= 21 q=29.0 size=    3314kB time=00:00:01.33 bitrate=20362.9kbits/",{}]],"21":[["frame=  100 fps= 20 q=29.0 size=    3928kB time=00:00:01.60 bitrate=20113.1kbits/",{}]],"22":[["frame=  109 fps= 20 q=29.0 size=    4630kB time=00:00:01.90 bitrate=19962.3kbits/",{}]]}}],[0.50878,{}],[0.000148,{"lines":{"0":[["yse=0x3:0x113 me=hex subme=7 psy=1 psy_rd=1.00:0.00 mixed_ref=1 me_range=16 chrom",{}]],"1":[["a_me=1 trellis=1 8x8dct=1 cqm=0 deadzone=21,11 fast_pskip=1 chroma_qp_offset=-2 t",{}]],"2":[["hreads=6 lookahead_threads=1 sliced_threads=0 nr=0 decimate=1 interlaced=0 bluray",{}]],"3":[["_compat=0 constrained_intra=0 bframes=3 b_pyramid=2 b_adapt=1 b_bias=0 direct=1 w",{}]],"4":[["eightb=1 open_gop=0 weightp=2 keyint=250 keyint_min=25 scenecut=40 intra_refresh=",{}]],"5":[["0 rc_lookahead=40 rc=crf mbtree=1 crf=23.0 qcomp=0.60 qpmin=0 qpmax=69 qpstep=4 i",{}]],"6":[["p_ratio=1.40 aq=1:1.00                                                           ",{}]],"7":[["Output #0, mp4, to 'output.mp4':                                                 ",{}]],"8":[["  Metadata:                                                                      ",{}]],"9":[["    encoder         : Lavf55.19.102                                              ",{}]],"10":[["    Stream #0:0: Video: h264 (libx264) ([33][0][0][0] / 0x0021), yuv420p, 1920x10",{}]],"11":[["80, q=-1--1, 15360 tbn, 30 tbc                                                   ",{}]],"12":[["Stream mapping:                                                                  ",{}]],"13":[["  Stream #0:0 -> #0:0 (rawvideo -> libx264)                                      ",{}]],"14":[["Press [q] to stop, [?] for help                                                  ",{}]],"15":[["frame=   59 fps= 27 q=29.0 size=     758kB time=00:00:00.23 bitrate=26623.1kbits/",{}]],"16":[["frame=   67 fps= 25 q=29.0 size=    1360kB time=00:00:00.50 bitrate=22279.6kbits/",{}]],"17":[["frame=   74 fps= 23 q=29.0 size=    1956kB time=00:00:00.73 bitrate=21851.0kbits/",{}]],"18":[["frame=   83 fps= 22 q=29.0 size=    2615kB time=00:00:01.03 bitrate=20729.7kbits/",{}]],"19":[["frame=   92 fps= 21 q=29.0 size=    3314kB time=00:00:01.33 bitrate=20362.9kbits/",{}]],"20":[["frame=  100 fps= 20 q=29.0 size=    3928kB time=00:00:01.60 bitrate=20113.1kbits/",{}]],"21":[["frame=  109 fps= 20 q=29.0 size=    4630kB time=00:00:01.90 bitrate=19962.3kbits/",{}]],"22":[["frame=  116 fps= 19 q=29.0 size=    5131kB time=00:00:02.13 bitrate=19704.0kbits/",{}]]}}],[0.570962,{"lines":{"0":[["a_me=1 trellis=1 8x8dct=1 cqm=0 deadzone=21,11 fast_pskip=1 chroma_qp_offset=-2 t",{}]],"1":[["hreads=6 lookahead_threads=1 sliced_threads=0 nr=0 decimate=1 interlaced=0 bluray",{}]],"2":[["_compat=0 constrained_intra=0 bframes=3 b_pyramid=2 b_adapt=1 b_bias=0 direct=1 w",{}]],"3":[["eightb=1 open_gop=0 weightp=2 keyint=250 keyint_min=25 scenecut=40 intra_refresh=",{}]],"4":[["0 rc_lookahead=40 rc=crf mbtree=1 crf=23.0 qcomp=0.60 qpmin=0 qpmax=69 qpstep=4 i",{}]],"5":[["p_ratio=1.40 aq=1:1.00                                                           ",{}]],"6":[["Output #0, mp4, to 'output.mp4':                                                 ",{}]],"7":[["  Metadata:                                                                      ",{}]],"8":[["    encoder         : Lavf55.19.102                                              ",{}]],"9":[["    Stream #0:0: Video: h264 (libx264) ([33][0][0][0] / 0x0021), yuv420p, 1920x10",{}]],"10":[["80, q=-1--1, 15360 tbn, 30 tbc                                                   ",{}]],"11":[["Stream mapping:                                                                  ",{}]],"12":[["  Stream #0:0 -> #0:0 (rawvideo -> libx264)                                      ",{}]],"13":[["Press [q] to stop, [?] for help                                                  ",{}]],"14":[["frame=   59 fps= 27 q=29.0 size=     758kB time=00:00:00.23 bitrate=26623.1kbits/",{}]],"15":[["frame=   67 fps= 25 q=29.0 size=    1360kB time=00:00:00.50 bitrate=22279.6kbits/",{}]],"16":[["frame=   74 fps= 23 q=29.0 size=    1956kB time=00:00:00.73 bitrate=21851.0kbits/",{}]],"17":[["frame=   83 fps= 22 q=29.0 size=    2615kB time=00:00:01.03 bitrate=20729.7kbits/",{}]],"18":[["frame=   92 fps= 21 q=29.0 size=    3314kB time=00:00:01.33 bitrate=20362.9kbits/",{}]],"19":[["frame=  100 fps= 20 q=29.0 size=    3928kB time=00:00:01.60 bitrate=20113.1kbits/",{}]],"20":[["frame=  109 fps= 20 q=29.0 size=    4630kB time=00:00:01.90 bitrate=19962.3kbits/",{}]],"21":[["frame=  116 fps= 19 q=29.0 size=    5131kB time=00:00:02.13 bitrate=19704.0kbits/",{}]],"22":[["frame=  125 fps= 19 q=29.0 size=    5659kB time=00:00:02.43 bitrate=19052.8kbits/",{}]]}}],[0.40926,{"lines":{"0":[["hreads=6 lookahead_threads=1 sliced_threads=0 nr=0 decimate=1 interlaced=0 bluray",{}]],"1":[["_compat=0 constrained_intra=0 bframes=3 b_pyramid=2 b_adapt=1 b_bias=0 direct=1 w",{}]],"2":[["eightb=1 open_gop=0 weightp=2 keyint=250 keyint_min=25 scenecut=40 intra_refresh=",{}]],"3":[["0 rc_lookahead=40 rc=crf mbtree=1 crf=23.0 qcomp=0.60 qpmin=0 qpmax=69 qpstep=4 i",{}]],"4":[["p_ratio=1.40 aq=1:1.00                                                           ",{}]],"5":[["Output #0, mp4, to 'output.mp4':                                                 ",{}]],"6":[["  Metadata:                                                                      ",{}]],"7":[["    encoder         : Lavf55.19.102                                              ",{}]],"8":[["    Stream #0:0: Video: h264 (libx264) ([33][0][0][0] / 0x0021), yuv420p, 1920x10",{}]],"9":[["80, q=-1--1, 15360 tbn, 30 tbc                                                   ",{}]],"10":[["Stream mapping:                                                                  ",{}]],"11":[["  Stream #0:0 -> #0:0 (rawvideo -> libx264)                                      ",{}]],"12":[["Press [q] to stop, [?] for help                                                  ",{}]],"13":[["frame=   59 fps= 27 q=29.0 size=     758kB time=00:00:00.23 bitrate=26623.1kbits/",{}]],"14":[["frame=   67 fps= 25 q=29.0 size=    1360kB time=00:00:00.50 bitrate=22279.6kbits/",{}]],"15":[["frame=   74 fps= 23 q=29.0 size=    1956kB time=00:00:00.73 bitrate=21851.0kbits/",{}]],"16":[["frame=   83 fps= 22 q=29.0 size=    2615kB time=00:00:01.03 bitrate=20729.7kbits/",{}]],"17":[["frame=   92 fps= 21 q=29.0 size=    3314kB time=00:00:01.33 bitrate=20362.9kbits/",{}]],"18":[["frame=  100 fps= 20 q=29.0 size=    3928kB time=00:00:01.60 bitrate=20113.1kbits/",{}]],"19":[["frame=  109 fps= 20 q=29.0 size=    4630kB time=00:00:01.90 bitrate=19962.3kbits/",{}]],"20":[["frame=  116 fps= 19 q=29.0 size=    5131kB time=00:00:02.13 bitrate=19704.0kbits/",{}]],"21":[["frame=  125 fps= 19 q=29.0 size=    5659kB time=00:00:02.43 bitrate=19052.8kbits/",{}]],"22":[["frame=  132 fps= 19 q=29.0 size=    6041kB time=00:00:02.66 bitrate=18559.2kbits/",{}]]}}],[2.745605,{}],[0.00098,{"lines":{"0":[["frame=  116 fps= 19 q=29.0 size=    5131kB time=00:00:02.13 bitrate=19704.0kbits/",{}]],"1":[["frame=  125 fps= 19 q=29.0 size=    5659kB time=00:00:02.43 bitrate=19052.8kbits/",{}]],"2":[["frame=  132 fps= 19 q=29.0 size=    6041kB time=00:00:02.66 bitrate=18559.2kbits/",{}]],"3":[["frame=  132 fps= 13 q=-1.0 Lsize=    9032kB time=00:00:04.33 bitrate=17074.4kbits",{}]],"4":[["/s                                                                               ",{}]],"5":[["video:9030kB audio:0kB subtitle:0 global headers:0kB muxing overhead 0.015626%   ",{}]],"6":[["[libx264 @ 0x2d64780] ",{"fg":6,"bold":true}],["frame I:7     Avg QP:27.08  size: 96146                    ",{}]],"7":[["[libx264 @ 0x2d64780] ",{"fg":6,"bold":true}],["frame P:125   Avg QP:28.04  size: 68588                    ",{}]],"8":[["[libx264 @ 0x2d64780] ",{"fg":6,"bold":true}],["mb I  I16..4: 26.4% 61.6% 12.0%                            ",{}]],"9":[["[libx264 @ 0x2d64780] ",{"fg":6,"bold":true}],["mb P  I16..4: 33.0% 52.8%  5.5%  P16..4:  5.2%  0.5%  0.2% ",{}]],"10":[[" 0.0%  0.0%    skip: 3.0%                                                        ",{}]],"11":[["[libx264 @ 0x2d64780] ",{"fg":6,"bold":true}],["8x8 transform intra:58.1% inter:86.7%                      ",{}]],"12":[["[libx264 @ 0x2d64780] ",{"fg":6,"bold":true}],["coded y,uvDC,uvAC intra: 31.6% 74.7% 51.7% inter: 13.4% 43.",{}]],"13":[["1% 21.3%                                                                         ",{}]],"14":[["[libx264 @ 0x2d64780] ",{"fg":6,"bold":true}],["i16 v,h,dc,p: 48% 22% 20% 10%                              ",{}]],"15":[["[libx264 @ 0x2d64780] ",{"fg":6,"bold":true}],["i8 v,h,dc,ddl,ddr,vr,hd,vl,hu: 35% 25% 23%  3%  2%  3%  2% ",{}]],"16":[[" 3%  4%                                                                          ",{}]],"17":[["[libx264 @ 0x2d64780] ",{"fg":6,"bold":true}],["i4 v,h,dc,ddl,ddr,vr,hd,vl,hu: 44% 27% 10%  3%  3%  4%  3% ",{}]],"18":[[" 3%  3%                                                                          ",{}]],"19":[["[libx264 @ 0x2d64780] ",{"fg":6,"bold":true}],["i8c dc,h,v,p: 31% 48% 15%  5%                              ",{}]],"20":[["[libx264 @ 0x2d64780] ",{"fg":6,"bold":true}],["Weighted P-Frames: Y:0.0% UV:0.0%                          ",{}]],"21":[["[libx264 @ 0x2d64780] ",{"fg":6,"bold":true}],["ref P L0: 40.2%  5.5% 14.9% 39.3%                          ",{}]],"22":[["[libx264 @ 0x2d64780] ",{"fg":6,"bold":true}],["kb/s:16811.81                                              ",{}]],"23":[["                                                                                 ",{}]]}}],[0.037595,{}],[0.001179,{"lines":{"23":[["wanhu@ubuntu",{"fg":2,"bold":true}],[":",{}],["~/play/ffmpeg-qsv",{"fg":4,"bold":true}],["$                                                  ",{}]]},"cursor":{"x":32}}],[4.302207,{"lines":{"0":[["frame=  125 fps= 19 q=29.0 size=    5659kB time=00:00:02.43 bitrate=19052.8kbits/",{}]],"1":[["frame=  132 fps= 19 q=29.0 size=    6041kB time=00:00:02.66 bitrate=18559.2kbits/",{}]],"2":[["frame=  132 fps= 13 q=-1.0 Lsize=    9032kB time=00:00:04.33 bitrate=17074.4kbits",{}]],"3":[["/s                                                                               ",{}]],"4":[["video:9030kB audio:0kB subtitle:0 global headers:0kB muxing overhead 0.015626%   ",{}]],"5":[["[libx264 @ 0x2d64780] ",{"fg":6,"bold":true}],["frame I:7     Avg QP:27.08  size: 96146                    ",{}]],"6":[["[libx264 @ 0x2d64780] ",{"fg":6,"bold":true}],["frame P:125   Avg QP:28.04  size: 68588                    ",{}]],"7":[["[libx264 @ 0x2d64780] ",{"fg":6,"bold":true}],["mb I  I16..4: 26.4% 61.6% 12.0%                            ",{}]],"8":[["[libx264 @ 0x2d64780] ",{"fg":6,"bold":true}],["mb P  I16..4: 33.0% 52.8%  5.5%  P16..4:  5.2%  0.5%  0.2% ",{}]],"9":[[" 0.0%  0.0%    skip: 3.0%                                                        ",{}]],"10":[["[libx264 @ 0x2d64780] ",{"fg":6,"bold":true}],["8x8 transform intra:58.1% inter:86.7%                      ",{}]],"11":[["[libx264 @ 0x2d64780] ",{"fg":6,"bold":true}],["coded y,uvDC,uvAC intra: 31.6% 74.7% 51.7% inter: 13.4% 43.",{}]],"12":[["1% 21.3%                                                                         ",{}]],"13":[["[libx264 @ 0x2d64780] ",{"fg":6,"bold":true}],["i16 v,h,dc,p: 48% 22% 20% 10%                              ",{}]],"14":[["[libx264 @ 0x2d64780] ",{"fg":6,"bold":true}],["i8 v,h,dc,ddl,ddr,vr,hd,vl,hu: 35% 25% 23%  3%  2%  3%  2% ",{}]],"15":[[" 3%  4%                                                                          ",{}]],"16":[["[libx264 @ 0x2d64780] ",{"fg":6,"bold":true}],["i4 v,h,dc,ddl,ddr,vr,hd,vl,hu: 44% 27% 10%  3%  3%  4%  3% ",{}]],"17":[[" 3%  3%                                                                          ",{}]],"18":[["[libx264 @ 0x2d64780] ",{"fg":6,"bold":true}],["i8c dc,h,v,p: 31% 48% 15%  5%                              ",{}]],"19":[["[libx264 @ 0x2d64780] ",{"fg":6,"bold":true}],["Weighted P-Frames: Y:0.0% UV:0.0%                          ",{}]],"20":[["[libx264 @ 0x2d64780] ",{"fg":6,"bold":true}],["ref P L0: 40.2%  5.5% 14.9% 39.3%                          ",{}]],"21":[["[libx264 @ 0x2d64780] ",{"fg":6,"bold":true}],["kb/s:16811.81                                              ",{}]],"22":[["wanhu@ubuntu",{"fg":2,"bold":true}],[":",{}],["~/play/ffmpeg-qsv",{"fg":4,"bold":true}],["$ exit                                             ",{}]],"23":[["                                                                                 ",{}]]},"cursor":{"x":0}}]]